<svg width="35" height="26" viewBox="0 0 37 28" fill="none" xmlns="http://www.w3.org/2000/svg">
<path fill-rule="evenodd" clip-rule="evenodd" d="M0.377014 8.83105C0.631014 9.60705 1.06599 10.321 1.67599 10.961C2.31299 11.633 3.15 12.155 4.19 12.529C5.225 12.902 6.55899 13.094 8.20499 13.094H10.438C10.17 15.837 9.19101 18.174 7.50201 20.106C5.81301 22.034 3.46901 23.727 0.475006 25.181L2.289 27.996C6.234 26.317 9.60601 23.862 12.406 20.616C15.209 17.37 16.602 14.152 16.602 10.961C16.602 7.53305 15.795 4.84505 14.164 2.90305C12.533 0.962048 10.199 -0.00195312 7.15799 -0.00195312C5.23399 -0.00195312 3.55701 0.638048 2.13501 1.92305C0.71101 3.20805 0 4.71105 0 6.42605C0 7.25005 0.127014 8.05505 0.377014 8.83105ZM20.775 8.83105C21.027 9.60705 21.465 10.321 22.072 10.961C22.711 11.633 23.549 12.155 24.584 12.529C25.623 12.902 26.957 13.094 28.602 13.094H30.832C30.566 15.837 29.588 18.174 27.898 20.106C26.207 22.034 23.867 23.727 20.871 25.181L22.688 27.996C26.631 26.317 30.004 23.862 32.805 20.616C35.606 17.37 37 14.152 37 10.961C37 7.53305 36.191 4.84505 34.561 2.90305C32.932 0.962048 30.598 -0.00195312 27.557 -0.00195312C25.629 -0.00195312 23.955 0.638048 22.533 1.92305C21.109 3.20805 20.398 4.71105 20.398 6.42605C20.398 7.25005 20.522 8.05505 20.775 8.83105Z" fill="#D0D7FA"/>
</svg>
