<svg width="35" height="26" viewBox="0 0 37 28" fill="none" xmlns="http://www.w3.org/2000/svg">
<path fill-rule="evenodd" clip-rule="evenodd" d="M36.623 8.833C36.369 9.609 35.934 10.323 35.324 10.963C34.687 11.635 33.85 12.157 32.81 12.531C31.775 12.904 30.441 13.096 28.795 13.096H26.562C26.83 15.839 27.809 18.176 29.498 20.108C31.187 22.036 33.531 23.729 36.525 25.183L34.711 27.998C30.766 26.319 27.394 23.864 24.594 20.618C21.791 17.372 20.398 14.154 20.398 10.963C20.398 7.535 21.205 4.847 22.836 2.905C24.467 0.964001 26.801 0 29.842 0C31.766 0 33.443 0.640001 34.865 1.925C36.289 3.21 37 4.713 37 6.428C37 7.252 36.873 8.057 36.623 8.833ZM16.225 8.833C15.973 9.609 15.535 10.323 14.928 10.963C14.289 11.635 13.451 12.157 12.416 12.531C11.377 12.904 10.043 13.096 8.39801 13.096H6.168C6.434 15.839 7.41199 18.176 9.10199 20.108C10.793 22.036 13.133 23.729 16.129 25.183L14.312 27.998C10.369 26.319 6.99601 23.864 4.19501 20.618C1.39401 17.372 0 14.154 0 10.963C0 7.535 0.808994 4.847 2.439 2.905C4.068 0.964001 6.40199 0 9.44299 0C11.371 0 13.045 0.640001 14.467 1.925C15.891 3.21 16.602 4.713 16.602 6.428C16.602 7.252 16.478 8.057 16.225 8.833Z" fill="#D0D7FA"/>
</svg>
